<svg width="16" height="16" viewBox="0 0 16 16" fill="none" xmlns="http://www.w3.org/2000/svg">
<path d="M11.336 3.3335H6.00004C4.77471 3.3335 3.60937 3.82483 2.71737 4.7175C1.82471 5.61016 1.33337 6.7755 1.33337 8.00016C1.33337 9.2255 1.82471 10.3908 2.71737 11.2828C3.60937 12.1755 4.77471 12.6668 6.00004 12.6668H11.3334V11.3335H6.00004C5.13137 11.3335 4.30004 10.9808 3.66004 10.3402C3.01937 9.70016 2.66671 8.86883 2.66671 8.00016C2.66671 7.13216 3.01937 6.30083 3.66004 5.66016C4.30004 5.0195 5.13137 4.66683 6.00004 4.66683H11.3334V4.00016L11.334 4.66683H11.336C11.8627 4.66683 12.362 4.87616 12.742 5.2575C13.1227 5.63816 13.3327 6.13883 13.3334 6.66816C13.3332 6.92997 13.281 7.18913 13.1798 7.4306C13.0786 7.67207 12.9305 7.89105 12.744 8.07483C12.5595 8.2616 12.3399 8.41005 12.0978 8.51165C11.8557 8.61325 11.5959 8.66599 11.3334 8.66683H6.00004C5.91313 8.66578 5.82728 8.64757 5.74743 8.61324C5.66757 8.57892 5.59528 8.52916 5.53471 8.46683C5.472 8.40619 5.42193 8.33373 5.38737 8.25363C5.35281 8.17353 5.33446 8.08739 5.33337 8.00016C5.33337 7.83216 5.40671 7.66216 5.53404 7.53483C5.59451 7.47208 5.66685 7.42198 5.74684 7.38741C5.82684 7.35285 5.9129 7.33453 6.00004 7.3335H11.3334V6.00016H6.00004C5.47337 6.00016 4.97271 6.21016 4.59071 6.59283C4.20937 6.97416 4.00004 7.47416 4.00004 8.00016C4.00004 8.52616 4.20937 9.02683 4.59204 9.4095C4.77604 9.59612 4.99522 9.74442 5.2369 9.8458C5.47858 9.94719 5.73796 9.99965 6.00004 10.0002H11.334C11.7715 9.99985 12.2046 9.91291 12.6082 9.74437C13.0119 9.57582 13.3782 9.32901 13.686 9.01816C13.9966 8.71027 14.243 8.34392 14.4112 7.94026C14.5793 7.53661 14.6659 7.10364 14.6658 6.66636C14.6658 6.22907 14.5791 5.79613 14.4108 5.39253C14.2425 4.98892 13.996 4.62264 13.6854 4.31483C13.3783 4.00383 13.0125 3.75693 12.6092 3.58847C12.2059 3.42001 11.7731 3.33334 11.336 3.3335Z" fill="#0066FF"/>
</svg>
