<svg width="16" height="16" viewBox="0 0 16 16" fill="none" xmlns="http://www.w3.org/2000/svg">
<path d="M8 10C9.10457 10 10 9.10457 10 8C10 6.89543 9.10457 6 8 6C6.89543 6 6 6.89543 6 8C6 9.10457 6.89543 10 8 10Z" fill="#7B19DD"/>
<path d="M8.66671 2.71283V1.3335H7.33337V2.71283C6.16015 2.8624 5.06981 3.39732 4.23351 4.23363C3.3972 5.06993 2.86228 6.16028 2.71271 7.3335H1.33337V8.66683H2.71271C2.86217 9.84009 3.39705 10.9305 4.23338 11.7668C5.06971 12.6032 6.16011 13.138 7.33337 13.2875V14.6668H8.66671V13.2875C9.83997 13.138 10.9304 12.6032 11.7667 11.7668C12.603 10.9305 13.1379 9.84009 13.2874 8.66683H14.6667V7.3335H13.2874C13.1378 6.16028 12.6029 5.06993 11.7666 4.23363C10.9303 3.39732 9.83993 2.8624 8.66671 2.71283ZM8.00004 12.0002C5.79404 12.0002 4.00004 10.2062 4.00004 8.00016C4.00004 5.79416 5.79404 4.00016 8.00004 4.00016C10.206 4.00016 12 5.79416 12 8.00016C12 10.2062 10.206 12.0002 8.00004 12.0002Z" fill="#7B19DD"/>
</svg>
