<svg width="16" height="16" viewBox="0 0 16 16" fill="none" xmlns="http://www.w3.org/2000/svg">
<path d="M1.44337 13.0338C1.56737 13.2205 1.77604 13.3332 2.00004 13.3332H12C12.2667 13.3332 12.508 13.1745 12.6127 12.9292L14.6127 8.2625C14.6565 8.16113 14.6744 8.05044 14.6648 7.94042C14.6551 7.83039 14.6183 7.7245 14.5575 7.6323C14.4967 7.54009 14.4139 7.46446 14.3166 7.41224C14.2193 7.36002 14.1105 7.33285 14 7.33317H13.3334V5.33317C13.3334 4.59784 12.7354 3.99984 12 3.99984H7.56337L5.85937 2.6665H2.66671C1.93137 2.6665 1.33337 3.2645 1.33337 3.99984V12.6665H1.33804C1.33655 12.7966 1.37317 12.9243 1.44337 13.0338ZM12 5.33317V7.33317H4.00004C3.73337 7.33317 3.49204 7.49184 3.38737 7.73717L2.66671 9.41917V5.33317H12Z" fill="#FE810E"/>
</svg>
