<svg width="24" height="24" viewBox="0 0 24 24" fill="none" xmlns="http://www.w3.org/2000/svg">
<path d="M18.344 8.71038C17.637 8.71038 17.065 9.28238 17.065 9.98838V14.5184C17.065 14.8576 17.1997 15.1829 17.4396 15.4228C17.6794 15.6626 18.0047 15.7974 18.344 15.7974C18.6832 15.7974 19.0085 15.6626 19.2483 15.4228C19.4882 15.1829 19.623 14.8576 19.623 14.5184V9.98838C19.623 9.28238 19.051 8.71038 18.344 8.71038V8.71038ZM5.65595 8.71038C4.94895 8.71038 4.37695 9.28238 4.37695 9.98838V14.5184C4.37695 14.8576 4.5117 15.1829 4.75156 15.4228C4.99142 15.6626 5.31674 15.7974 5.65595 15.7974C5.99517 15.7974 6.32048 15.6626 6.56034 15.4228C6.8002 15.1829 6.93495 14.8576 6.93495 14.5184V9.98838C6.93508 9.82043 6.90209 9.6541 6.83784 9.49892C6.7736 9.34374 6.67938 9.20276 6.56058 9.08405C6.44177 8.96533 6.30071 8.87122 6.14549 8.8071C5.99026 8.74298 5.8239 8.71011 5.65595 8.71038V8.71038ZM14.545 4.90138L15.313 3.51338C15.3354 3.47386 15.3498 3.43028 15.3552 3.38516C15.3607 3.34004 15.3571 3.29429 15.3448 3.25056C15.3324 3.20683 15.3114 3.16599 15.2831 3.13043C15.2549 3.09486 15.2198 3.06527 15.18 3.04338C15.1402 3.02098 15.0965 3.00671 15.0512 3.00138C15.0059 2.99605 14.96 2.99978 14.9162 3.01234C14.8724 3.0249 14.8315 3.04605 14.7959 3.07455C14.7603 3.10306 14.7308 3.13835 14.709 3.17838L13.92 4.59838C13.332 4.36338 12.684 4.23038 12 4.23038C11.316 4.23038 10.668 4.36238 10.08 4.59738L9.29095 3.17938C9.26913 3.13935 9.23957 3.10406 9.20399 3.07555C9.16841 3.04705 9.12752 3.0259 9.0837 3.01334C9.03987 3.00078 8.99399 2.99705 8.94871 3.00238C8.90343 3.00771 8.85966 3.02198 8.81995 3.04438C8.78032 3.06647 8.74544 3.09616 8.7173 3.13175C8.68916 3.16734 8.66831 3.20813 8.65596 3.25179C8.6436 3.29545 8.63998 3.34111 8.6453 3.38617C8.65062 3.43123 8.66477 3.4748 8.68695 3.51438L9.45495 4.90238C8.07195 5.69038 7.14795 7.09938 7.14795 8.71038C7.14795 8.72138 7.14795 8.73138 7.14995 8.74438C7.14795 8.75038 7.14795 8.75738 7.14795 8.76338V8.76438H16.851V8.71038C16.852 7.09938 15.928 5.69138 14.545 4.90138V4.90138ZM9.75995 6.86938C9.71445 6.86905 9.66946 6.85976 9.62754 6.84204C9.58563 6.82433 9.54762 6.79853 9.51567 6.76612C9.45116 6.70067 9.41529 6.61227 9.41595 6.52038C9.41662 6.42848 9.45376 6.34061 9.51921 6.2761C9.58466 6.21158 9.67306 6.17571 9.76495 6.17638C9.85685 6.17704 9.94472 6.21418 10.0092 6.27963C10.0737 6.34508 10.1096 6.43348 10.109 6.52538C10.1083 6.61727 10.0711 6.70514 10.0057 6.76966C9.94025 6.83417 9.85185 6.87004 9.75995 6.86938ZM14.24 6.86938C14.1527 6.86274 14.0712 6.82341 14.0118 6.75925C13.9523 6.6951 13.9193 6.61085 13.9193 6.52338C13.9193 6.4359 13.9523 6.35166 14.0118 6.2875C14.0712 6.22335 14.1527 6.18401 14.24 6.17738C14.3317 6.17738 14.4197 6.21383 14.4846 6.27872C14.5495 6.34361 14.586 6.43161 14.586 6.52338C14.586 6.61514 14.5495 6.70315 14.4846 6.76804C14.4197 6.83292 14.3317 6.86938 14.24 6.86938V6.86938ZM7.14795 16.1204C7.14795 16.7664 7.67295 17.2914 8.32195 17.2914H8.90795V19.6924C8.90795 20.0316 9.04271 20.3569 9.28256 20.5968C9.52242 20.8366 9.84774 20.9714 10.187 20.9714C10.5262 20.9714 10.8515 20.8366 11.0913 20.5968C11.3312 20.3569 11.466 20.0316 11.466 19.6924V17.2914H12.532V19.6924C12.532 20.3994 13.104 20.9704 13.809 20.9704C14.518 20.9704 15.09 20.3994 15.09 19.6924V17.2914H15.676C16.324 17.2914 16.85 16.7674 16.85 16.1204V9.02838H7.14795V16.1204Z" fill="white"/>
</svg>
